:SAMPLES-PER-SECOND 30
:FULLY-SPECIFIED
:DEGREES
1
root  -114.813 38.6924 -2.09214 -55.0943 84.3863 -56.5828
RightUpLeg  10.5703 3.15042 9.50381
RightLeg  13.2366 9.83384 -1.74245
RightFoot  -10.3098 -0.0595349 2.60337
RightToes  1.74622e-010 -1.59028e-015 9.93923e-017
Spine  -9.59892 5.20929 16.2319
Spine1  20.0532 8.02766 -10.8358
HEad  -13.213 -4.0153 5.47127
LeftShoulder1  9.93923e-017 0 1.22299e-017
LeftArm  -2.28281 56.5823 -56.9476
LeftForeArm  -10.6859 -2.18963 -6.02475
LeftHand  1.49109 17.8261 -10.8267
RightShoulder  1.98785e-016 -4.96962e-017 1.55301e-017
RightArm  15.2047 1.00578 77.9623
RightForeArm  -37.3795 36.4774 -32.4636
RightHand  1.82855 -13.4829 -9.12188
LeftUpLeg  -30.0125 -1.86665 3.1843
LeftLeg  -4.1942 -4.23028 -0.30625
LeftFoot  1.91371 0.578854 -4.24946
LeftToes  -5.36576e-011 -1.15168e-011 3.25213e-012
2
root  -113.285 38.5447 -2.14253 -54.4516 85.0451 -56.2834
RightUpLeg  12.0549 3.18961 8.48132
RightLeg  14.3225 10.111 -1.20833
RightFoot  -9.20445 -0.142852 4.71104
RightToes  1.74622e-010 -1.59028e-015 9.93923e-017
Spine  -10.6938 5.0239 15.2405
Spine1  21.5955 8.10934 -10.9865
HEad  -13.7587 -4.0803 5.87657
LeftShoulder1  9.93923e-017 0 1.22299e-017
LeftArm  -3.3219 57.5074 -55.9228
LeftForeArm  -13.1592 -1.87623 -5.68918
LeftHand  1.6197 20.1446 -10.7706
RightShoulder  1.98785e-016 -4.96962e-017 1.55301e-017
RightArm  14.4137 0.941322 78.4322
RightForeArm  -37.1596 36.0897 -32.136
RightHand  1.75589 -13.3731 -8.28636
LeftUpLeg  -30.9823 -2.70292 2.46113
LeftLeg  -1.28507 -3.17749 0.485569
LeftFoot  0.711593 0.418721 -3.33858
LeftToes  -5.36576e-011 -1.15168e-011 3.25213e-012
3
root  -110.952 38.4056 -2.26459 -46.3843 85.466 -48.7906
RightUpLeg  11.8493 3.23144 6.28915
RightLeg  19.6755 11.6348 0.440252
RightFoot  -3.81658 -0.749996 8.67444
RightToes  1.74622e-010 -1.59028e-015 9.93923e-017
Spine  -11.6334 5.01203 14.4856
Spine1  21.2394 8.41375 -11.2557
HEad  -12.0056 -4.56232 6.88986
LeftShoulder1  9.93923e-017 0 1.22299e-017
LeftArm  -2.6838 58.3238 -54.5063
LeftForeArm  -11.8739 -1.80541 -5.44865
LeftHand  1.66972 18.7882 -9.55492
RightShoulder  1.98785e-016 -4.96962e-017 1.55301e-017
RightArm  14.1375 -1.40725 79.6291
RightForeArm  -37.2317 35.1439 -31.3103
RightHand  1.74297 -13.4008 -8.00517
LeftUpLeg  -30.9154 -3.98985 2.03606
LeftLeg  2.99476 -1.13241 1.33985
LeftFoot  2.86602 0.334462 -2.29453
LeftToes  -5.36576e-011 -1.15168e-011 3.25213e-012
4
root  -108.566 38.3189 -2.41163 -30.071 85.6099 -32.8564
RightUpLeg  9.25047 1.75929 2.88251
RightLeg  28.354 13.8436 2.60025
RightFoot  8.62974 -2.11298 11.0529
RightToes  1.74622e-010 -1.59028e-015 9.93923e-017
Spine  -11.5072 5.00551 13.4181
Spine1  18.6458 8.59779 -11.3271
HEad  -10.3698 -4.99133 7.37879
LeftShoulder1  9.93923e-017 0 1.22299e-017
LeftArm  -5.30537 57.6504 -54.8051
LeftForeArm  -2.17938 -1.34188 -4.55659
LeftHand  1.40611 13.2639 -8.56842
RightShoulder  1.98785e-016 -4.96962e-017 1.55301e-017
RightArm  15.3265 -5.74495 81.4298
RightForeArm  -37.6521 33.4583 -29.8772
RightHand  1.77925 -13.4651 -8.40673
LeftUpLeg  -29.6966 -5.47852 1.8609
LeftLeg  6.41957 1.33052 1.64919
LeftFoot  7.91842 0.250768 -1.24376
LeftToes  -5.36576e-011 -1.15168e-011 3.25213e-012
5
root  -106.428 38.1608 -2.51365 -3.89414 86.211 -6.73698
RightUpLeg  6.15032 -0.558336 -0.774766
RightLeg  35.895 13.3501 2.7179
RightFoot  24.6897 -3.54234 10.4221
RightToes  1.74622e-010 -1.59028e-015 9.93923e-017
Spine  -9.59438 4.17282 9.57801
Spine1  16.1392 7.5241 -10.4407
HEad  -10.3397 -4.93157 6.92037
LeftShoulder1  9.93923e-017 0 1.22299e-017
LeftArm  -6.55889 56.6028 -57.4331
LeftForeArm  1.81427 -1.53682 -4.75444
LeftHand  1.14342 9.26562 -8.7271
RightShoulder  1.98785e-016 -4.96962e-017 1.55301e-017
RightArm  17.2371 -10.3468 83.843
RightForeArm  -37.8877 31.0937 -28.0116
RightHand  1.68745 -13.2666 -7.47085
LeftUpLeg  -29.5687 -6.48323 0.372412
LeftLeg  11.8047 2.23529 2.28789
LeftFoot  10.1922 0.030469 0.0134663
LeftToes  -5.36576e-011 -1.15168e-011 3.25213e-012
6
root  -104.616 37.9419 -2.56561 30.9541 86.404 28.2341
RightUpLeg  2.39867 -1.50228 -3.41389
RightLeg  42.7747 9.94001 -0.233409
RightFoot  35.2698 -4.53775 10.0828
RightToes  1.74622e-010 -1.59028e-015 9.93923e-017
Spine  -6.80582 2.86603 4.53937
Spine1  15.0587 5.71226 -9.64462
HEad  -11.0296 -3.46121 5.79975
LeftShoulder1  9.93923e-017 0 1.22299e-017
LeftArm  -7.80763 53.0788 -62.6563
LeftForeArm  0.6014 -2.12487 -5.63751
LeftHand  1.06399 8.33999 -9.84207
RightShoulder  1.98785e-016 -4.96962e-017 1.55301e-017
RightArm  19.2367 -14.4837 86.5339
RightForeArm  -38.2398 28.0848 -25.795
RightHand  1.51919 -12.9316 -5.54043
LeftUpLeg  -29.8593 -6.67021 -2.36811
LeftLeg  18.2179 1.19938 3.39029
LeftFoot  7.23171 -0.120918 0.801218
LeftToes  -5.36576e-011 -1.15168e-011 3.25213e-012
7
root  -102.944 37.8392 -2.59273 53.6801 85.5804 51.1147
RightUpLeg  -2.62468 -0.8957 -4.79849
RightLeg  50.7935 7.75509 -3.37222
RightFoot  33.7131 -4.29689 9.95701
RightToes  1.74622e-010 -1.59028e-015 9.93923e-017
Spine  -5.49708 2.05306 1.11568
Spine1  15.8359 4.62239 -9.81569
HEad  -11.4951 -1.77906 4.89971
LeftShoulder1  9.93923e-017 0 1.22299e-017
LeftArm  -10.3857 45.8126 -68.401
LeftForeArm  0.225802 -2.59255 -6.02001
LeftHand  1.09958 8.97357 -10.0832
RightShoulder  1.98785e-016 -4.96962e-017 1.55301e-017
RightArm  23.445 -18.4052 88.9921
RightForeArm  -41.4484 24.1659 -23.2661
RightHand  1.47224 -12.8926 -4.83072
LeftUpLeg  -28.9073 -6.79971 -4.7165
LeftLeg  22.6779 0.421817 4.38805
LeftFoot  2.04569 -0.0805728 0.60631
LeftToes  -5.36576e-011 -1.15168e-011 3.25213e-012
8
root  -101.235 37.9616 -2.58866 56.877 84.4723 54.4675
RightUpLeg  -8.18984 0.656117 -5.15889
RightLeg  57.697 7.8236 -4.48824
RightFoot  23.3093 -2.5462 7.53271
RightToes  1.74622e-010 -1.59028e-015 9.93923e-017
Spine  -5.45919 1.70892 -1.34256
Spine1  16.9941 3.96543 -9.58708
HEad  -10.6883 -1.49692 4.26098
LeftShoulder1  9.93923e-017 0 1.22299e-017
LeftArm  -11.9314 37.6609 -73.0031
LeftForeArm  -0.230835 -2.89341 -6.3152
LeftHand  1.12492 9.0177 -8.61258
RightShoulder  1.98785e-016 -4.96962e-017 1.55301e-017
RightArm  27.7845 -22.5824 90.6906
RightForeArm  -44.867 20.8663 -18.918
RightHand  1.51488 -13.0593 -5.16475
LeftUpLeg  -26.4931 -7.28346 -5.93691
LeftLeg  24.4746 0.999745 5.18972
LeftFoot  -1.86499 0.0222425 -0.285934
LeftToes  -5.36576e-011 -1.15168e-011 3.25213e-012
